<?xml version="1.0" standalone="no"?>
<svg xmlns:xlink="http://www.w3.org/1999/xlink" id="wave" style="transform:rotate(0deg); transition: 0.3s" viewBox="0 0 1440 100" version="1.1" xmlns="http://www.w3.org/2000/svg"><defs><linearGradient id="sw-gradient-0" x1="0" x2="0" y1="1" y2="0"><stop stop-color="rgba(13, 110, 253, 1)" offset="0%"/><stop stop-color="rgba(29, 29, 29, 1)" offset="100%"/></linearGradient></defs><path style="transform:translate(0, 0px); opacity:1" fill="url(#sw-gradient-0)" d="M0,90L30,90C60,90,120,90,180,75C240,60,300,30,360,16.7C420,3,480,7,540,10C600,13,660,17,720,25C780,33,840,47,900,46.7C960,47,1020,33,1080,33.3C1140,33,1200,47,1260,53.3C1320,60,1380,60,1440,55C1500,50,1560,40,1620,36.7C1680,33,1740,37,1800,40C1860,43,1920,47,1980,45C2040,43,2100,37,2160,33.3C2220,30,2280,30,2340,26.7C2400,23,2460,17,2520,15C2580,13,2640,17,2700,30C2760,43,2820,67,2880,75C2940,83,3000,77,3060,63.3C3120,50,3180,30,3240,33.3C3300,37,3360,63,3420,61.7C3480,60,3540,30,3600,23.3C3660,17,3720,33,3780,45C3840,57,3900,63,3960,70C4020,77,4080,83,4140,78.3C4200,73,4260,57,4290,48.3L4320,40L4320,100L4290,100C4260,100,4200,100,4140,100C4080,100,4020,100,3960,100C3900,100,3840,100,3780,100C3720,100,3660,100,3600,100C3540,100,3480,100,3420,100C3360,100,3300,100,3240,100C3180,100,3120,100,3060,100C3000,100,2940,100,2880,100C2820,100,2760,100,2700,100C2640,100,2580,100,2520,100C2460,100,2400,100,2340,100C2280,100,2220,100,2160,100C2100,100,2040,100,1980,100C1920,100,1860,100,1800,100C1740,100,1680,100,1620,100C1560,100,1500,100,1440,100C1380,100,1320,100,1260,100C1200,100,1140,100,1080,100C1020,100,960,100,900,100C840,100,780,100,720,100C660,100,600,100,540,100C480,100,420,100,360,100C300,100,240,100,180,100C120,100,60,100,30,100L0,100Z"/></svg>